<svg width="317" height="302" viewBox="0 0 317 302" fill="none" xmlns="http://www.w3.org/2000/svg">
<line x1="42.6301" y1="35.3906" x2="72.9431" y2="65.7036" stroke="#818A9B" stroke-opacity="0.26" stroke-width="0.529248" stroke-linecap="round" stroke-dasharray="1.85 1.85"/>
<line x1="238.363" y1="207.91" x2="261.991" y2="222.191" stroke="#818A9B" stroke-opacity="0.26" stroke-width="0.529248" stroke-linecap="round" stroke-dasharray="1.85 1.85"/>
<line x1="103.623" y1="228.467" x2="82.1887" y2="265.593" stroke="#818A9B" stroke-opacity="0.26" stroke-width="0.529248" stroke-linecap="round" stroke-dasharray="1.85 1.85"/>
<circle cx="153.277" cy="132.576" r="99.7632" fill="#1C2230"/>
<path d="M253.04 132.576C253.04 117.98 249.838 103.563 243.659 90.3401C237.48 77.1172 228.474 65.4113 217.278 56.0479C206.082 46.6845 192.968 39.8918 178.861 36.1488C164.754 32.4058 149.997 31.8039 135.632 34.3853C121.267 36.9668 107.643 42.6688 95.7214 51.0891C83.8 59.5095 73.8713 70.443 66.6357 83.1186C59.4002 95.7942 55.034 109.903 53.8452 124.45C52.6563 138.997 54.6738 153.627 59.7553 167.309L78.4597 160.363C74.3944 149.417 72.7804 137.712 73.7315 126.075C74.6826 114.438 78.1755 103.15 83.964 93.01C89.7524 82.8696 97.6954 74.1227 107.233 67.3864C116.77 60.6502 127.669 56.0886 139.161 54.0234C150.653 51.9582 162.458 52.4398 173.744 55.4342C185.03 58.4285 195.521 63.8627 204.478 71.3535C213.435 78.8442 220.639 88.2089 225.582 98.7872C230.526 109.365 233.087 120.899 233.087 132.576H253.04Z" fill="#9B61E4"/>
<g opacity="0.3" filter="url(#filter0_f_99_370)">
<path d="M253.04 132.576C253.04 116.356 249.085 100.381 241.519 86.0341C233.952 71.6875 223.001 59.4023 209.615 50.2427C196.229 41.0831 180.812 35.3254 164.698 33.4685C148.585 31.6115 132.262 33.7113 117.144 39.586C102.025 45.4606 88.5669 54.9329 77.9351 67.1822C67.3032 79.4316 59.8183 94.0884 56.1288 109.883C52.4394 125.678 52.6567 142.134 56.7618 157.825C60.867 173.517 68.7363 187.971 79.6878 199.936L94.4057 186.464C85.6444 176.892 79.349 165.329 76.0649 152.775C72.7807 140.222 72.6069 127.057 75.5585 114.422C78.51 101.786 84.4979 90.0604 93.0034 80.2609C101.509 70.4615 112.275 62.8837 124.37 58.1839C136.465 53.4842 149.524 51.8044 162.414 53.2899C175.305 54.7754 187.639 59.3816 198.347 66.7093C209.056 74.037 217.817 83.8652 223.87 95.3424C229.924 106.82 233.087 119.6 233.087 132.576H253.04Z" fill="#9B61E4"/>
</g>
<path d="M151.843 232.329C165.25 232.521 178.559 230.009 190.973 224.943C203.387 219.877 214.653 212.36 224.097 202.841C233.541 193.323 240.969 181.999 245.937 169.545C250.906 157.091 253.313 143.764 253.016 130.359L233.068 130.802C233.306 141.526 231.38 152.188 227.405 162.151C223.43 172.114 217.488 181.174 209.933 188.788C202.378 196.403 193.365 202.416 183.434 206.47C173.502 210.523 162.856 212.532 152.13 212.378L151.843 232.329Z" fill="#718BD2"/>
<path d="M59.582 166.839C66.5418 185.871 79.1324 202.332 95.6782 214.032C112.224 225.732 131.941 232.115 152.204 232.333L152.419 212.382C136.208 212.207 120.435 207.1 107.198 197.741C93.9613 188.381 83.8888 175.212 78.321 159.986L59.582 166.839Z" fill="#49B4C2"/>
<g filter="url(#filter1_dddd_99_370)">
<rect x="92.6992" y="64.3672" width="46.54" height="23.5573" rx="5.17111" fill="#171D2C"/>
<rect x="92.9865" y="64.6545" width="45.9654" height="22.9827" rx="4.88383" stroke="#1F2735" stroke-width="0.574568"/>
</g>
<path d="M110.663 72.633L107.457 80.2402L106.641 80.2402L109.881 72.7019L105.285 72.7019L105.285 72.0124L110.663 72.0124L110.663 72.633ZM117.054 72.6904L112.848 72.6904L112.848 75.6322C113.04 75.3641 113.319 75.1457 113.687 74.9772C114.055 74.801 114.453 74.7129 114.882 74.7129C115.51 74.7129 116.024 74.8431 116.422 75.1036C116.82 75.3564 117.108 75.6897 117.284 76.1033C117.46 76.5094 117.548 76.946 117.548 77.4134C117.548 77.9496 117.445 78.4361 117.238 78.8728C117.039 79.3018 116.729 79.6427 116.307 79.8955C115.894 80.1483 115.376 80.2747 114.756 80.2747C113.967 80.2747 113.327 80.0717 112.837 79.6657C112.347 79.252 112.048 78.6966 111.94 77.9994L112.733 77.9994C112.833 78.505 113.063 78.8957 113.423 79.1715C113.783 79.4473 114.227 79.5852 114.756 79.5852C115.422 79.5852 115.924 79.3899 116.261 78.9992C116.606 78.6008 116.778 78.076 116.778 77.4249C116.778 76.789 116.606 76.2949 116.261 75.9425C115.917 75.5824 115.422 75.4024 114.779 75.4024C114.335 75.4024 113.944 75.5058 113.607 75.7126C113.27 75.9195 113.021 76.1991 112.86 76.5515L112.101 76.5515L112.101 71.9894L117.054 71.9894L117.054 72.6904ZM118.7 73.7246C118.7 73.2343 118.849 72.8398 119.148 72.541C119.454 72.2346 119.841 72.0814 120.308 72.0814C120.783 72.0814 121.17 72.2346 121.469 72.541C121.775 72.8398 121.929 73.2343 121.929 73.7246C121.929 74.2226 121.775 74.6248 121.469 74.9312C121.17 75.23 120.783 75.3794 120.308 75.3794C119.841 75.3794 119.454 75.23 119.148 74.9312C118.849 74.6248 118.7 74.2226 118.7 73.7246ZM125.135 72.1963L120.423 80.2402L119.607 80.2402L124.33 72.1963L125.135 72.1963ZM120.308 72.5985C120.017 72.5985 119.784 72.6981 119.607 72.8973C119.439 73.0888 119.355 73.3646 119.355 73.7246C119.355 74.0847 119.439 74.3643 119.607 74.5635C119.784 74.7627 120.017 74.8623 120.308 74.8623C120.599 74.8623 120.833 74.7627 121.009 74.5635C121.186 74.3643 121.274 74.0847 121.274 73.7246C121.274 73.3722 121.186 73.0964 121.009 72.8973C120.833 72.6981 120.599 72.5985 120.308 72.5985ZM122.836 78.7119C122.836 78.2139 122.986 77.8156 123.285 77.5168C123.591 77.2103 123.978 77.0571 124.445 77.0571C124.913 77.0571 125.296 77.2103 125.594 77.5168C125.901 77.8156 126.054 78.2139 126.054 78.7119C126.054 79.2098 125.901 79.612 125.594 79.9185C125.296 80.2173 124.913 80.3666 124.445 80.3666C123.978 80.3666 123.591 80.2173 123.285 79.9185C122.986 79.612 122.836 79.2098 122.836 78.7119ZM124.445 77.5857C124.154 77.5857 123.92 77.6853 123.744 77.8845C123.568 78.0837 123.48 78.3595 123.48 78.7119C123.48 79.0643 123.568 79.3401 123.744 79.5393C123.92 79.7384 124.154 79.838 124.445 79.838C124.736 79.838 124.966 79.7423 125.135 79.5508C125.311 79.3516 125.399 79.0719 125.399 78.7119C125.399 78.3518 125.311 78.076 125.135 77.8845C124.966 77.6853 124.736 77.5857 124.445 77.5857Z" fill="white"/>
<g filter="url(#filter2_dddd_99_370)">
<rect x="94.7305" y="195.852" width="46.54" height="23.5573" rx="5.17111" fill="#171D2C"/>
<rect x="95.0178" y="196.139" width="45.9654" height="22.9827" rx="4.88383" stroke="#1F2735" stroke-width="0.574568"/>
</g>
<path d="M116.022 204.175L111.816 204.175L111.816 207.117C112.007 206.848 112.287 206.63 112.655 206.462C113.023 206.285 113.421 206.197 113.85 206.197C114.478 206.197 114.991 206.328 115.39 206.588C115.788 206.841 116.075 207.174 116.252 207.588C116.428 207.994 116.516 208.43 116.516 208.898C116.516 209.434 116.412 209.92 116.206 210.357C116.006 210.786 115.696 211.127 115.275 211.38C114.861 211.633 114.344 211.759 113.724 211.759C112.934 211.759 112.295 211.556 111.804 211.15C111.314 210.736 111.015 210.181 110.908 209.484L111.701 209.484C111.801 209.989 112.03 210.38 112.391 210.656C112.751 210.932 113.195 211.07 113.724 211.07C114.39 211.07 114.892 210.874 115.229 210.484C115.574 210.085 115.746 209.56 115.746 208.909C115.746 208.273 115.574 207.779 115.229 207.427C114.884 207.067 114.39 206.887 113.746 206.887C113.302 206.887 112.911 206.99 112.574 207.197C112.237 207.404 111.988 207.683 111.827 208.036L111.069 208.036L111.069 203.474L116.022 203.474L116.022 204.175ZM117.667 205.209C117.667 204.719 117.817 204.324 118.115 204.025C118.422 203.719 118.809 203.566 119.276 203.566C119.751 203.566 120.138 203.719 120.437 204.025C120.743 204.324 120.896 204.719 120.896 205.209C120.896 205.707 120.743 206.109 120.437 206.416C120.138 206.714 119.751 206.864 119.276 206.864C118.809 206.864 118.422 206.714 118.115 206.416C117.817 206.109 117.667 205.707 117.667 205.209ZM124.102 203.681L119.391 211.725L118.575 211.725L123.298 203.681L124.102 203.681ZM119.276 204.083C118.985 204.083 118.751 204.182 118.575 204.382C118.406 204.573 118.322 204.849 118.322 205.209C118.322 205.569 118.406 205.849 118.575 206.048C118.751 206.247 118.985 206.347 119.276 206.347C119.567 206.347 119.801 206.247 119.977 206.048C120.153 205.849 120.241 205.569 120.241 205.209C120.241 204.857 120.153 204.581 119.977 204.382C119.801 204.182 119.567 204.083 119.276 204.083ZM121.804 210.196C121.804 209.698 121.953 209.3 122.252 209.001C122.559 208.695 122.946 208.542 123.413 208.542C123.88 208.542 124.263 208.695 124.562 209.001C124.868 209.3 125.022 209.698 125.022 210.196C125.022 210.694 124.868 211.096 124.562 211.403C124.263 211.702 123.88 211.851 123.413 211.851C122.946 211.851 122.559 211.702 122.252 211.403C121.953 211.096 121.804 210.694 121.804 210.196ZM123.413 209.07C123.122 209.07 122.888 209.17 122.712 209.369C122.536 209.568 122.448 209.844 122.448 210.196C122.448 210.549 122.536 210.824 122.712 211.024C122.888 211.223 123.122 211.322 123.413 211.322C123.704 211.322 123.934 211.227 124.102 211.035C124.279 210.836 124.367 210.556 124.367 210.196C124.367 209.836 124.279 209.56 124.102 209.369C123.934 209.17 123.704 209.07 123.413 209.07Z" fill="white"/>
<g filter="url(#filter3_dddd_99_370)">
<rect x="203" y="177" width="46.5371" height="23.5558" rx="5.17079" fill="#171D2C"/>
<rect x="203.287" y="177.287" width="45.9626" height="22.9813" rx="4.88352" stroke="#1F2735" stroke-width="0.574532"/>
</g>
<path d="M215.378 192.241C216.787 191.184 217.875 190.238 218.641 189.403C219.415 188.56 219.802 187.737 219.802 186.932C219.802 186.404 219.668 185.982 219.399 185.668C219.139 185.347 218.71 185.186 218.112 185.186C217.53 185.186 217.078 185.37 216.757 185.737C216.442 186.097 216.266 186.58 216.228 187.185L215.447 187.185C215.493 186.335 215.753 185.676 216.228 185.209C216.711 184.734 217.339 184.496 218.112 184.496C218.856 184.496 219.457 184.707 219.916 185.128C220.376 185.542 220.606 186.132 220.606 186.898C220.606 187.825 220.219 188.725 219.445 189.598C218.679 190.464 217.733 191.31 216.607 192.138L220.859 192.138L220.859 192.816L215.378 192.816L215.378 192.241ZM222.114 188.679C222.114 187.361 222.317 186.339 222.723 185.611C223.129 184.883 223.857 184.519 224.906 184.519C225.956 184.519 226.684 184.883 227.09 185.611C227.496 186.339 227.699 187.361 227.699 188.679C227.699 190.02 227.496 191.058 227.09 191.793C226.684 192.528 225.956 192.896 224.906 192.896C223.849 192.896 223.118 192.528 222.712 191.793C222.313 191.058 222.114 190.02 222.114 188.679ZM226.906 188.679C226.906 187.967 226.856 187.365 226.756 186.875C226.657 186.385 226.462 185.99 226.17 185.691C225.879 185.393 225.458 185.243 224.906 185.243C224.355 185.243 223.934 185.393 223.643 185.691C223.351 185.99 223.156 186.385 223.056 186.875C222.957 187.365 222.907 187.967 222.907 188.679C222.907 189.414 222.957 190.031 223.056 190.529C223.156 191.019 223.351 191.414 223.643 191.712C223.934 192.011 224.355 192.161 224.906 192.161C225.458 192.161 225.879 192.011 226.17 191.712C226.462 191.414 226.657 191.019 226.756 190.529C226.856 190.031 226.906 189.414 226.906 188.679ZM228.942 186.358C228.942 185.868 229.092 185.473 229.39 185.174C229.697 184.868 230.084 184.715 230.551 184.715C231.026 184.715 231.413 184.868 231.711 185.174C232.018 185.473 232.171 185.868 232.171 186.358C232.171 186.856 232.018 187.258 231.711 187.564C231.413 187.863 231.026 188.013 230.551 188.013C230.084 188.013 229.697 187.863 229.39 187.564C229.092 187.258 228.942 186.856 228.942 186.358ZM235.377 184.83L230.666 192.873L229.85 192.873L234.573 184.83L235.377 184.83ZM230.551 185.232C230.26 185.232 230.026 185.331 229.85 185.531C229.681 185.722 229.597 185.998 229.597 186.358C229.597 186.718 229.681 186.997 229.85 187.197C230.026 187.396 230.26 187.495 230.551 187.495C230.842 187.495 231.076 187.396 231.252 187.197C231.428 186.997 231.516 186.718 231.516 186.358C231.516 186.005 231.428 185.73 231.252 185.531C231.076 185.331 230.842 185.232 230.551 185.232ZM233.079 191.345C233.079 190.847 233.228 190.449 233.527 190.15C233.833 189.843 234.22 189.69 234.687 189.69C235.155 189.69 235.538 189.843 235.837 190.15C236.143 190.449 236.296 190.847 236.296 191.345C236.296 191.843 236.143 192.245 235.837 192.551C235.538 192.85 235.155 192.999 234.687 192.999C234.22 192.999 233.833 192.85 233.527 192.551C233.228 192.245 233.079 191.843 233.079 191.345ZM234.687 190.219C234.396 190.219 234.163 190.318 233.987 190.517C233.81 190.717 233.722 190.992 233.722 191.345C233.722 191.697 233.81 191.973 233.987 192.172C234.163 192.371 234.396 192.471 234.687 192.471C234.979 192.471 235.208 192.375 235.377 192.184C235.553 191.984 235.641 191.705 235.641 191.345C235.641 190.985 235.553 190.709 235.377 190.517C235.208 190.318 234.979 190.219 234.687 190.219Z" fill="white"/>
<rect x="225.265" y="237.265" width="91.2284" height="25.7632" rx="5.29248" fill="#718BD2" fill-opacity="0.15"/>
<rect x="225.265" y="237.265" width="91.2284" height="25.7632" rx="5.29248" stroke="#333C52" stroke-width="0.529248"/>
<path d="M247.443 244.986V254.646H246.463V246.932L243.019 254.646H242.305L238.861 246.96V254.646H237.881V244.986H238.917L242.655 253.358L246.393 244.986H247.443ZM249.218 250.81C249.218 250.026 249.372 249.34 249.68 248.752C249.997 248.155 250.431 247.698 250.982 247.38C251.542 247.054 252.172 246.89 252.872 246.89C253.6 246.89 254.225 247.058 254.748 247.394C255.28 247.73 255.663 248.16 255.896 248.682V247.002H256.876V254.646H255.896V252.952C255.653 253.475 255.266 253.909 254.734 254.254C254.211 254.59 253.586 254.758 252.858 254.758C252.167 254.758 251.542 254.595 250.982 254.268C250.431 253.942 249.997 253.48 249.68 252.882C249.372 252.285 249.218 251.594 249.218 250.81ZM255.896 250.824C255.896 250.208 255.77 249.667 255.518 249.2C255.266 248.734 254.921 248.374 254.482 248.122C254.053 247.87 253.577 247.744 253.054 247.744C252.513 247.744 252.027 247.866 251.598 248.108C251.169 248.351 250.828 248.706 250.576 249.172C250.333 249.63 250.212 250.176 250.212 250.81C250.212 251.436 250.333 251.986 250.576 252.462C250.828 252.929 251.169 253.288 251.598 253.54C252.027 253.783 252.513 253.904 253.054 253.904C253.577 253.904 254.053 253.778 254.482 253.526C254.921 253.274 255.266 252.915 255.518 252.448C255.77 251.982 255.896 251.44 255.896 250.824ZM260.093 248.36C260.308 247.884 260.634 247.516 261.073 247.254C261.521 246.993 262.067 246.862 262.711 246.862V247.884H262.445C261.736 247.884 261.166 248.076 260.737 248.458C260.308 248.841 260.093 249.48 260.093 250.376V254.646H259.113V247.002H260.093V248.36ZM268.315 254.646L265.165 251.216V254.646H264.185V244.286H265.165V250.418L268.245 247.002H269.617L265.991 250.81L269.645 254.646H268.315ZM277.828 250.432C277.828 250.768 277.819 251.025 277.8 251.202H271.458C271.486 251.781 271.626 252.276 271.878 252.686C272.13 253.097 272.461 253.41 272.872 253.624C273.283 253.83 273.731 253.932 274.216 253.932C274.851 253.932 275.383 253.778 275.812 253.47C276.251 253.162 276.54 252.747 276.68 252.224H277.716C277.529 252.971 277.128 253.582 276.512 254.058C275.905 254.525 275.14 254.758 274.216 254.758C273.497 254.758 272.853 254.6 272.284 254.282C271.715 253.956 271.267 253.498 270.94 252.91C270.623 252.313 270.464 251.618 270.464 250.824C270.464 250.031 270.623 249.336 270.94 248.738C271.257 248.141 271.701 247.684 272.27 247.366C272.839 247.049 273.488 246.89 274.216 246.89C274.944 246.89 275.579 247.049 276.12 247.366C276.671 247.684 277.091 248.113 277.38 248.654C277.679 249.186 277.828 249.779 277.828 250.432ZM276.834 250.404C276.843 249.835 276.727 249.35 276.484 248.948C276.251 248.547 275.929 248.244 275.518 248.038C275.107 247.833 274.659 247.73 274.174 247.73C273.446 247.73 272.825 247.964 272.312 248.43C271.799 248.897 271.514 249.555 271.458 250.404H276.834ZM280.895 247.828V252.574C280.895 253.041 280.984 253.363 281.161 253.54C281.338 253.718 281.651 253.806 282.099 253.806H282.995V254.646H281.945C281.254 254.646 280.741 254.488 280.405 254.17C280.069 253.844 279.901 253.312 279.901 252.574V247.828H278.837V247.002H279.901V245.084H280.895V247.002H282.995V247.828H280.895ZM285.101 245.56C284.905 245.56 284.737 245.49 284.597 245.35C284.457 245.21 284.387 245.038 284.387 244.832C284.387 244.627 284.457 244.459 284.597 244.328C284.737 244.188 284.905 244.118 285.101 244.118C285.297 244.118 285.465 244.188 285.605 244.328C285.745 244.459 285.815 244.627 285.815 244.832C285.815 245.038 285.745 245.21 285.605 245.35C285.465 245.49 285.297 245.56 285.101 245.56ZM285.591 247.002V254.646H284.611V247.002H285.591ZM291.394 246.862C292.309 246.862 293.056 247.147 293.634 247.716C294.213 248.276 294.502 249.093 294.502 250.166V254.646H293.536V250.278C293.536 249.448 293.326 248.813 292.906 248.374C292.496 247.936 291.931 247.716 291.212 247.716C290.475 247.716 289.887 247.95 289.448 248.416C289.01 248.883 288.79 249.569 288.79 250.474V254.646H287.81V247.002H288.79V248.304C289.033 247.838 289.383 247.483 289.84 247.24C290.298 246.988 290.816 246.862 291.394 246.862ZM299.876 246.89C300.594 246.89 301.22 247.058 301.752 247.394C302.284 247.73 302.666 248.155 302.9 248.668V247.002H303.88V254.842C303.88 255.542 303.726 256.163 303.418 256.704C303.119 257.246 302.699 257.661 302.158 257.95C301.616 258.249 301 258.398 300.31 258.398C299.33 258.398 298.513 258.165 297.86 257.698C297.216 257.232 296.814 256.597 296.656 255.794H297.622C297.79 256.326 298.107 256.751 298.574 257.068C299.05 257.386 299.628 257.544 300.31 257.544C300.804 257.544 301.248 257.437 301.64 257.222C302.032 257.017 302.34 256.709 302.564 256.298C302.788 255.888 302.9 255.402 302.9 254.842V252.952C302.657 253.475 302.27 253.909 301.738 254.254C301.215 254.59 300.594 254.758 299.876 254.758C299.176 254.758 298.546 254.595 297.986 254.268C297.435 253.942 297.001 253.48 296.684 252.882C296.376 252.285 296.222 251.594 296.222 250.81C296.222 250.026 296.376 249.34 296.684 248.752C297.001 248.155 297.435 247.698 297.986 247.38C298.546 247.054 299.176 246.89 299.876 246.89ZM302.9 250.824C302.9 250.208 302.774 249.667 302.522 249.2C302.27 248.734 301.924 248.374 301.486 248.122C301.056 247.87 300.58 247.744 300.058 247.744C299.516 247.744 299.031 247.866 298.602 248.108C298.172 248.351 297.832 248.706 297.58 249.172C297.337 249.63 297.216 250.176 297.216 250.81C297.216 251.436 297.337 251.986 297.58 252.462C297.832 252.929 298.172 253.288 298.602 253.54C299.031 253.783 299.516 253.904 300.058 253.904C300.58 253.904 301.056 253.778 301.486 253.526C301.924 253.274 302.27 252.915 302.522 252.448C302.774 251.982 302.9 251.44 302.9 250.824Z" fill="white"/>
<rect x="0.264624" y="0.264624" width="80.2284" height="25.7632" rx="5.29248" fill="#9B61E4" fill-opacity="0.15"/>
<rect x="0.264624" y="0.264624" width="80.2284" height="25.7632" rx="5.29248" stroke="#333C52" stroke-width="0.529248"/>
<path d="M14.1088 16.6105H17.5248V17.6465H12.8348V7.88848H14.1088V16.6105ZM19.5358 8.72848C19.2931 8.72848 19.0878 8.64448 18.9198 8.47648C18.7518 8.30848 18.6678 8.10315 18.6678 7.86048C18.6678 7.61782 18.7518 7.41248 18.9198 7.24448C19.0878 7.07648 19.2931 6.99248 19.5358 6.99248C19.7691 6.99248 19.9651 7.07648 20.1238 7.24448C20.2918 7.41248 20.3758 7.61782 20.3758 7.86048C20.3758 8.10315 20.2918 8.30848 20.1238 8.47648C19.9651 8.64448 19.7691 8.72848 19.5358 8.72848ZM20.1518 9.97448V17.6465H18.8778V9.97448H20.1518ZM21.8471 13.7825C21.8471 12.9985 22.0058 12.3125 22.3231 11.7245C22.6405 11.1272 23.0745 10.6652 23.6251 10.3385C24.1851 10.0118 24.8105 9.84848 25.5011 9.84848C26.1638 9.84848 26.7425 9.99782 27.2371 10.2965C27.7411 10.5858 28.1098 10.9452 28.3431 11.3745V9.97448H29.6311V21.2865H28.3431V16.2325C28.1005 16.6618 27.7271 17.0258 27.2231 17.3245C26.7191 17.6232 26.1311 17.7725 25.4591 17.7725C24.7871 17.7725 24.1758 17.6045 23.6251 17.2685C23.0745 16.9325 22.6405 16.4612 22.3231 15.8545C22.0058 15.2478 21.8471 14.5572 21.8471 13.7825ZM28.3431 13.7965C28.3431 13.2178 28.2265 12.7138 27.9931 12.2845C27.7598 11.8552 27.4425 11.5285 27.0411 11.3045C26.6491 11.0712 26.2151 10.9545 25.7391 10.9545C25.2631 10.9545 24.8291 11.0665 24.4371 11.2905C24.0451 11.5145 23.7325 11.8412 23.4991 12.2705C23.2658 12.6998 23.1491 13.2038 23.1491 13.7825C23.1491 14.3705 23.2658 14.8838 23.4991 15.3225C23.7325 15.7518 24.0451 16.0832 24.4371 16.3165C24.8291 16.5405 25.2631 16.6525 25.7391 16.6525C26.2151 16.6525 26.6491 16.5405 27.0411 16.3165C27.4425 16.0832 27.7598 15.7518 27.9931 15.3225C28.2265 14.8838 28.3431 14.3752 28.3431 13.7965ZM38.5881 9.97448V17.6465H37.3141V16.5125C37.0714 16.9045 36.7307 17.2125 36.2921 17.4365C35.8627 17.6512 35.3867 17.7585 34.8641 17.7585C34.2667 17.7585 33.7301 17.6372 33.2541 17.3945C32.7781 17.1425 32.4001 16.7692 32.1201 16.2745C31.8494 15.7798 31.7141 15.1778 31.7141 14.4685V9.97448H32.9741V14.3005C32.9741 15.0565 33.1654 15.6398 33.5481 16.0505C33.9307 16.4518 34.4534 16.6525 35.1161 16.6525C35.7974 16.6525 36.3341 16.4425 36.7261 16.0225C37.1181 15.6025 37.3141 14.9912 37.3141 14.1885V9.97448H38.5881ZM41.3971 8.72848C41.1545 8.72848 40.9491 8.64448 40.7811 8.47648C40.6131 8.30848 40.5291 8.10315 40.5291 7.86048C40.5291 7.61782 40.6131 7.41248 40.7811 7.24448C40.9491 7.07648 41.1545 6.99248 41.3971 6.99248C41.6305 6.99248 41.8265 7.07648 41.9851 7.24448C42.1531 7.41248 42.2371 7.61782 42.2371 7.86048C42.2371 8.10315 42.1531 8.30848 41.9851 8.47648C41.8265 8.64448 41.6305 8.72848 41.3971 8.72848ZM42.0131 9.97448V17.6465H40.7391V9.97448H42.0131ZM43.7084 13.7825C43.7084 12.9985 43.8671 12.3125 44.1844 11.7245C44.5018 11.1272 44.9358 10.6652 45.4864 10.3385C46.0464 10.0118 46.6718 9.84848 47.3624 9.84848C47.9598 9.84848 48.5151 9.98848 49.0284 10.2685C49.5418 10.5392 49.9338 10.8985 50.2044 11.3465V7.28648H51.4924V17.6465H50.2044V16.2045C49.9524 16.6618 49.5791 17.0398 49.0844 17.3385C48.5898 17.6278 48.0111 17.7725 47.3484 17.7725C46.6671 17.7725 46.0464 17.6045 45.4864 17.2685C44.9358 16.9325 44.5018 16.4612 44.1844 15.8545C43.8671 15.2478 43.7084 14.5572 43.7084 13.7825ZM50.2044 13.7965C50.2044 13.2178 50.0878 12.7138 49.8544 12.2845C49.6211 11.8552 49.3038 11.5285 48.9024 11.3045C48.5104 11.0712 48.0764 10.9545 47.6004 10.9545C47.1244 10.9545 46.6904 11.0665 46.2984 11.2905C45.9064 11.5145 45.5938 11.8412 45.3604 12.2705C45.1271 12.6998 45.0104 13.2038 45.0104 13.7825C45.0104 14.3705 45.1271 14.8838 45.3604 15.3225C45.5938 15.7518 45.9064 16.0832 46.2984 16.3165C46.6904 16.5405 47.1244 16.6525 47.6004 16.6525C48.0764 16.6525 48.5104 16.5405 48.9024 16.3165C49.3038 16.0832 49.6211 15.7518 49.8544 15.3225C50.0878 14.8838 50.2044 14.3752 50.2044 13.7965ZM54.3034 8.72848C54.0607 8.72848 53.8554 8.64448 53.6874 8.47648C53.5194 8.30848 53.4354 8.10315 53.4354 7.86048C53.4354 7.61782 53.5194 7.41248 53.6874 7.24448C53.8554 7.07648 54.0607 6.99248 54.3034 6.99248C54.5367 6.99248 54.7327 7.07648 54.8914 7.24448C55.0594 7.41248 55.1434 7.61782 55.1434 7.86048C55.1434 8.10315 55.0594 8.30848 54.8914 8.47648C54.7327 8.64448 54.5367 8.72848 54.3034 8.72848ZM54.9194 9.97448V17.6465H53.6454V9.97448H54.9194ZM58.6447 11.0245V15.5465C58.6447 15.9198 58.724 16.1858 58.8827 16.3445C59.0414 16.4938 59.3167 16.5685 59.7087 16.5685H60.6467V17.6465H59.4987C58.7894 17.6465 58.2574 17.4832 57.9027 17.1565C57.548 16.8298 57.3707 16.2932 57.3707 15.5465V11.0245H56.3767V9.97448H57.3707V8.04248H58.6447V9.97448H60.6467V11.0245H58.6447ZM68.7983 9.97448L64.1783 21.2585H62.8623L64.3743 17.5625L61.2803 9.97448H62.6943L65.1023 16.1905L67.4823 9.97448H68.7983Z" fill="white"/>
<rect x="19.2646" y="275.265" width="74.2284" height="25.7632" rx="5.29248" fill="#49B4C2" fill-opacity="0.15"/>
<rect x="19.2646" y="275.265" width="74.2284" height="25.7632" rx="5.29248" stroke="#333C52" stroke-width="0.529248"/>
<path d="M37.6243 290.476H33.3683L32.5843 292.646H31.2403L34.7683 282.944H36.2383L39.7523 292.646H38.4083L37.6243 290.476ZM37.2603 289.44L35.4963 284.512L33.7323 289.44H37.2603ZM41.9479 283.728C41.7052 283.728 41.4999 283.644 41.3319 283.476C41.1639 283.308 41.0799 283.103 41.0799 282.86C41.0799 282.618 41.1639 282.412 41.3319 282.244C41.4999 282.076 41.7052 281.992 41.9479 281.992C42.1812 281.992 42.3772 282.076 42.5359 282.244C42.7039 282.412 42.7879 282.618 42.7879 282.86C42.7879 283.103 42.7039 283.308 42.5359 283.476C42.3772 283.644 42.1812 283.728 41.9479 283.728ZM42.5639 284.974V292.646H41.2899V284.974H42.5639ZM46.0092 286.22C46.2332 285.782 46.5506 285.441 46.9612 285.198C47.3812 284.956 47.8899 284.834 48.4872 284.834V286.15H48.1512C46.7232 286.15 46.0092 286.925 46.0092 288.474V292.646H44.7352V284.974H46.0092V286.22ZM49.4819 288.782C49.4819 287.998 49.6405 287.312 49.9579 286.724C50.2752 286.127 50.7092 285.665 51.2599 285.338C51.8199 285.012 52.4452 284.848 53.1359 284.848C53.7332 284.848 54.2885 284.988 54.8019 285.268C55.3152 285.539 55.7072 285.898 55.9779 286.346V282.286H57.2659V292.646H55.9779V291.204C55.7259 291.662 55.3525 292.04 54.8579 292.338C54.3632 292.628 53.7845 292.772 53.1219 292.772C52.4405 292.772 51.8199 292.604 51.2599 292.268C50.7092 291.932 50.2752 291.461 49.9579 290.854C49.6405 290.248 49.4819 289.557 49.4819 288.782ZM55.9779 288.796C55.9779 288.218 55.8612 287.714 55.6279 287.284C55.3945 286.855 55.0772 286.528 54.6759 286.304C54.2839 286.071 53.8499 285.954 53.3739 285.954C52.8979 285.954 52.4639 286.066 52.0719 286.29C51.6799 286.514 51.3672 286.841 51.1339 287.27C50.9005 287.7 50.7839 288.204 50.7839 288.782C50.7839 289.37 50.9005 289.884 51.1339 290.322C51.3672 290.752 51.6799 291.083 52.0719 291.316C52.4639 291.54 52.8979 291.652 53.3739 291.652C53.8499 291.652 54.2839 291.54 54.6759 291.316C55.0772 291.083 55.3945 290.752 55.6279 290.322C55.8612 289.884 55.9779 289.375 55.9779 288.796ZM60.6928 286.22C60.9168 285.782 61.2342 285.441 61.6448 285.198C62.0648 284.956 62.5735 284.834 63.1708 284.834V286.15H62.8348C61.4068 286.15 60.6928 286.925 60.6928 288.474V292.646H59.4188V284.974H60.6928V286.22ZM67.9875 292.772C67.2688 292.772 66.6155 292.609 66.0275 292.282C65.4488 291.956 64.9915 291.494 64.6555 290.896C64.3288 290.29 64.1655 289.59 64.1655 288.796C64.1655 288.012 64.3335 287.322 64.6695 286.724C65.0148 286.118 65.4815 285.656 66.0695 285.338C66.6575 285.012 67.3155 284.848 68.0435 284.848C68.7715 284.848 69.4295 285.012 70.0175 285.338C70.6055 285.656 71.0675 286.113 71.4035 286.71C71.7488 287.308 71.9215 288.003 71.9215 288.796C71.9215 289.59 71.7441 290.29 71.3895 290.896C71.0441 291.494 70.5728 291.956 69.9755 292.282C69.3781 292.609 68.7155 292.772 67.9875 292.772ZM67.9875 291.652C68.4448 291.652 68.8741 291.545 69.2755 291.33C69.6768 291.116 69.9988 290.794 70.2415 290.364C70.4935 289.935 70.6195 289.412 70.6195 288.796C70.6195 288.18 70.4981 287.658 70.2555 287.228C70.0128 286.799 69.6955 286.482 69.3035 286.276C68.9115 286.062 68.4868 285.954 68.0295 285.954C67.5628 285.954 67.1335 286.062 66.7415 286.276C66.3588 286.482 66.0508 286.799 65.8175 287.228C65.5841 287.658 65.4675 288.18 65.4675 288.796C65.4675 289.422 65.5795 289.949 65.8035 290.378C66.0368 290.808 66.3448 291.13 66.7275 291.344C67.1101 291.55 67.5301 291.652 67.9875 291.652ZM74.8706 286.388C75.1226 285.95 75.4959 285.586 75.9906 285.296C76.4946 284.998 77.0779 284.848 77.7406 284.848C78.4219 284.848 79.0379 285.012 79.5886 285.338C80.1486 285.665 80.5872 286.127 80.9046 286.724C81.2219 287.312 81.3806 287.998 81.3806 288.782C81.3806 289.557 81.2219 290.248 80.9046 290.854C80.5872 291.461 80.1486 291.932 79.5886 292.268C79.0379 292.604 78.4219 292.772 77.7406 292.772C77.0872 292.772 76.5086 292.628 76.0046 292.338C75.5099 292.04 75.1319 291.671 74.8706 291.232V296.286H73.5966V284.974H74.8706V286.388ZM80.0786 288.782C80.0786 288.204 79.9619 287.7 79.7286 287.27C79.4952 286.841 79.1779 286.514 78.7766 286.29C78.3846 286.066 77.9506 285.954 77.4746 285.954C77.0079 285.954 76.5739 286.071 76.1726 286.304C75.7806 286.528 75.4632 286.86 75.2206 287.298C74.9872 287.728 74.8706 288.227 74.8706 288.796C74.8706 289.375 74.9872 289.884 75.2206 290.322C75.4632 290.752 75.7806 291.083 76.1726 291.316C76.5739 291.54 77.0079 291.652 77.4746 291.652C77.9506 291.652 78.3846 291.54 78.7766 291.316C79.1779 291.083 79.4952 290.752 79.7286 290.322C79.9619 289.884 80.0786 289.37 80.0786 288.782Z" fill="white"/>
<defs>
<filter id="filter0_f_99_370" x="29.6975" y="8.99634" width="247.159" height="214.755" filterUnits="userSpaceOnUse" color-interpolation-filters="sRGB">
<feFlood flood-opacity="0" result="BackgroundImageFix"/>
<feBlend mode="normal" in="SourceGraphic" in2="BackgroundImageFix" result="shape"/>
<feGaussianBlur stdDeviation="11.9081" result="effect1_foregroundBlur_99_370"/>
</filter>
<filter id="filter1_dddd_99_370" x="70.2911" y="61.4943" width="74.6939" height="69.5221" filterUnits="userSpaceOnUse" color-interpolation-filters="sRGB">
<feFlood flood-opacity="0" result="BackgroundImageFix"/>
<feColorMatrix in="SourceAlpha" type="matrix" values="0 0 0 0 0 0 0 0 0 0 0 0 0 0 0 0 0 0 127 0" result="hardAlpha"/>
<feOffset dx="-0.574568" dy="1.7237"/>
<feGaussianBlur stdDeviation="2.29827"/>
<feColorMatrix type="matrix" values="0 0 0 0 0 0 0 0 0 0 0 0 0 0 0 0 0 0 0.1 0"/>
<feBlend mode="normal" in2="BackgroundImageFix" result="effect1_dropShadow_99_370"/>
<feColorMatrix in="SourceAlpha" type="matrix" values="0 0 0 0 0 0 0 0 0 0 0 0 0 0 0 0 0 0 127 0" result="hardAlpha"/>
<feOffset dx="-2.29827" dy="7.46938"/>
<feGaussianBlur stdDeviation="4.02198"/>
<feColorMatrix type="matrix" values="0 0 0 0 0 0 0 0 0 0 0 0 0 0 0 0 0 0 0.09 0"/>
<feBlend mode="normal" in2="effect1_dropShadow_99_370" result="effect2_dropShadow_99_370"/>
<feColorMatrix in="SourceAlpha" type="matrix" values="0 0 0 0 0 0 0 0 0 0 0 0 0 0 0 0 0 0 127 0" result="hardAlpha"/>
<feOffset dx="-5.17111" dy="17.237"/>
<feGaussianBlur stdDeviation="5.4584"/>
<feColorMatrix type="matrix" values="0 0 0 0 0 0 0 0 0 0 0 0 0 0 0 0 0 0 0.05 0"/>
<feBlend mode="normal" in2="effect2_dropShadow_99_370" result="effect3_dropShadow_99_370"/>
<feColorMatrix in="SourceAlpha" type="matrix" values="0 0 0 0 0 0 0 0 0 0 0 0 0 0 0 0 0 0 127 0" result="hardAlpha"/>
<feOffset dx="-9.76765" dy="30.4521"/>
<feGaussianBlur stdDeviation="6.32025"/>
<feColorMatrix type="matrix" values="0 0 0 0 0 0 0 0 0 0 0 0 0 0 0 0 0 0 0.01 0"/>
<feBlend mode="normal" in2="effect3_dropShadow_99_370" result="effect4_dropShadow_99_370"/>
<feBlend mode="normal" in="SourceGraphic" in2="effect4_dropShadow_99_370" result="shape"/>
</filter>
<filter id="filter2_dddd_99_370" x="72.3223" y="192.979" width="74.6939" height="69.5221" filterUnits="userSpaceOnUse" color-interpolation-filters="sRGB">
<feFlood flood-opacity="0" result="BackgroundImageFix"/>
<feColorMatrix in="SourceAlpha" type="matrix" values="0 0 0 0 0 0 0 0 0 0 0 0 0 0 0 0 0 0 127 0" result="hardAlpha"/>
<feOffset dx="-0.574568" dy="1.7237"/>
<feGaussianBlur stdDeviation="2.29827"/>
<feColorMatrix type="matrix" values="0 0 0 0 0 0 0 0 0 0 0 0 0 0 0 0 0 0 0.1 0"/>
<feBlend mode="normal" in2="BackgroundImageFix" result="effect1_dropShadow_99_370"/>
<feColorMatrix in="SourceAlpha" type="matrix" values="0 0 0 0 0 0 0 0 0 0 0 0 0 0 0 0 0 0 127 0" result="hardAlpha"/>
<feOffset dx="-2.29827" dy="7.46938"/>
<feGaussianBlur stdDeviation="4.02198"/>
<feColorMatrix type="matrix" values="0 0 0 0 0 0 0 0 0 0 0 0 0 0 0 0 0 0 0.09 0"/>
<feBlend mode="normal" in2="effect1_dropShadow_99_370" result="effect2_dropShadow_99_370"/>
<feColorMatrix in="SourceAlpha" type="matrix" values="0 0 0 0 0 0 0 0 0 0 0 0 0 0 0 0 0 0 127 0" result="hardAlpha"/>
<feOffset dx="-5.17111" dy="17.237"/>
<feGaussianBlur stdDeviation="5.4584"/>
<feColorMatrix type="matrix" values="0 0 0 0 0 0 0 0 0 0 0 0 0 0 0 0 0 0 0.05 0"/>
<feBlend mode="normal" in2="effect2_dropShadow_99_370" result="effect3_dropShadow_99_370"/>
<feColorMatrix in="SourceAlpha" type="matrix" values="0 0 0 0 0 0 0 0 0 0 0 0 0 0 0 0 0 0 127 0" result="hardAlpha"/>
<feOffset dx="-9.76765" dy="30.4521"/>
<feGaussianBlur stdDeviation="6.32025"/>
<feColorMatrix type="matrix" values="0 0 0 0 0 0 0 0 0 0 0 0 0 0 0 0 0 0 0.01 0"/>
<feBlend mode="normal" in2="effect3_dropShadow_99_370" result="effect4_dropShadow_99_370"/>
<feBlend mode="normal" in="SourceGraphic" in2="effect4_dropShadow_99_370" result="shape"/>
</filter>
<filter id="filter3_dddd_99_370" x="180.593" y="174.127" width="74.6892" height="69.5192" filterUnits="userSpaceOnUse" color-interpolation-filters="sRGB">
<feFlood flood-opacity="0" result="BackgroundImageFix"/>
<feColorMatrix in="SourceAlpha" type="matrix" values="0 0 0 0 0 0 0 0 0 0 0 0 0 0 0 0 0 0 127 0" result="hardAlpha"/>
<feOffset dx="-0.574532" dy="1.7236"/>
<feGaussianBlur stdDeviation="2.29813"/>
<feColorMatrix type="matrix" values="0 0 0 0 0 0 0 0 0 0 0 0 0 0 0 0 0 0 0.1 0"/>
<feBlend mode="normal" in2="BackgroundImageFix" result="effect1_dropShadow_99_370"/>
<feColorMatrix in="SourceAlpha" type="matrix" values="0 0 0 0 0 0 0 0 0 0 0 0 0 0 0 0 0 0 127 0" result="hardAlpha"/>
<feOffset dx="-2.29813" dy="7.46892"/>
<feGaussianBlur stdDeviation="4.02173"/>
<feColorMatrix type="matrix" values="0 0 0 0 0 0 0 0 0 0 0 0 0 0 0 0 0 0 0.09 0"/>
<feBlend mode="normal" in2="effect1_dropShadow_99_370" result="effect2_dropShadow_99_370"/>
<feColorMatrix in="SourceAlpha" type="matrix" values="0 0 0 0 0 0 0 0 0 0 0 0 0 0 0 0 0 0 127 0" result="hardAlpha"/>
<feOffset dx="-5.17079" dy="17.236"/>
<feGaussianBlur stdDeviation="5.45806"/>
<feColorMatrix type="matrix" values="0 0 0 0 0 0 0 0 0 0 0 0 0 0 0 0 0 0 0.05 0"/>
<feBlend mode="normal" in2="effect2_dropShadow_99_370" result="effect3_dropShadow_99_370"/>
<feColorMatrix in="SourceAlpha" type="matrix" values="0 0 0 0 0 0 0 0 0 0 0 0 0 0 0 0 0 0 127 0" result="hardAlpha"/>
<feOffset dx="-9.76705" dy="30.4502"/>
<feGaussianBlur stdDeviation="6.31985"/>
<feColorMatrix type="matrix" values="0 0 0 0 0 0 0 0 0 0 0 0 0 0 0 0 0 0 0.01 0"/>
<feBlend mode="normal" in2="effect3_dropShadow_99_370" result="effect4_dropShadow_99_370"/>
<feBlend mode="normal" in="SourceGraphic" in2="effect4_dropShadow_99_370" result="shape"/>
</filter>
</defs>
</svg>
